HIERARCHY
ROOT Hips
{
  OFFSET -32.5998 29.0326 120.673
  CHANNELS 6 Xposition Yposition Zposition Zrotation Xrotation Yrotation
  JOINT LeftUpLeg
  {
    OFFSET 8.64259 1.95398 -2.38835
    CHANNELS 3 Zrotation Xrotation Yrotation
    JOINT LeftLeg
    {
      OFFSET 43.7702 0 0
      CHANNELS 3 Zrotation Xrotation Yrotation
      JOINT LeftFoot
      {
        OFFSET 40.6238 0 0
        CHANNELS 3 Zrotation Xrotation Yrotation
        JOINT LeftToeBase
        {
          OFFSET 12.7242 0 0
          CHANNELS 3 Zrotation Xrotation Yrotation
          End Site
          {
            OFFSET 0 0 0
          }
        }
      }
    }
  }
  JOINT RightUpLeg
  {
    OFFSET -8.2249 1.95398 -2.59336
    CHANNELS 3 Zrotation Xrotation Yrotation
    JOINT RightLeg
    {
      OFFSET 43.5653 0 0
      CHANNELS 3 Zrotation Xrotation Yrotation
      JOINT RightFoot
      {
        OFFSET 40.6238 0 0
        CHANNELS 3 Zrotation Xrotation Yrotation
        JOINT RightToeBase
        {
          OFFSET 12.7242 0 0
          CHANNELS 3 Zrotation Xrotation Yrotation
          End Site
          {
            OFFSET 0 0 0
          }
        }
      }
    }
  }
  JOINT Spine
  {
    OFFSET 0.165834 0.87714 6.61349
    CHANNELS 3 Zrotation Xrotation Yrotation
    JOINT Spine1
    {
      OFFSET 7.38963 1.71661e-005 0
      CHANNELS 3 Zrotation Xrotation Yrotation
      JOINT Spine2
      {
        OFFSET 11.9445 1.14441e-005 0
        CHANNELS 3 Zrotation Xrotation Yrotation
        JOINT Spine3
        {
          OFFSET 14.7254 4.19617e-005 0
          CHANNELS 3 Zrotation Xrotation Yrotation
          JOINT Spine4
          {
            OFFSET 10.9679 0 0
            CHANNELS 3 Zrotation Xrotation Yrotation
            JOINT RightShoulder
            {
              OFFSET 2.46616 -1.6653 3.69651
              CHANNELS 3 Zrotation Xrotation Yrotation
              JOINT RightArm
              {
                OFFSET 13.0012 0 0
                CHANNELS 3 Zrotation Xrotation Yrotation
                JOINT RightForeArm
                {
                  OFFSET 28.7848 1.62311e-005 0
                  CHANNELS 3 Zrotation Xrotation Yrotation
                  JOINT RightHand
                  {
                    OFFSET 26.5688 1.62095e-005 0
                    CHANNELS 3 Zrotation Xrotation Yrotation
                    End Site
                    {
                      OFFSET 0 0 0
                    }
                  }
                }
              }
            }
            JOINT LeftShoulder
            {
              OFFSET 2.38034 -1.29275 -3.7523
              CHANNELS 3 Zrotation Xrotation Yrotation
              JOINT LeftArm
              {
                OFFSET 16.3182 6.07031e-005 0
                CHANNELS 3 Zrotation Xrotation Yrotation
                JOINT LeftForeArm
                {
                  OFFSET 27.0901 0 0
                  CHANNELS 3 Zrotation Xrotation Yrotation
                  JOINT LeftHand
                  {
                    OFFSET 24.5451 1.51738e-005 0
                    CHANNELS 3 Zrotation Xrotation Yrotation
                    End Site
                    {
                      OFFSET 0 0 0
                    }
                  }
                }
              }
            }
            JOINT Neck
            {
              OFFSET 5.0226 -0.0266342 0
              CHANNELS 3 Zrotation Xrotation Yrotation
              JOINT Head
              {
                OFFSET 6.69364 2.86102e-005 0
                CHANNELS 3 Zrotation Xrotation Yrotation
                End Site
                {
                  OFFSET 0 0 0
                }
              }
            }
          }
        }
      }
    }
  }
}
MOTION
Frames:	7
Frame Time:	0.0416667
-318.773 89.1362 294.761 97.1338 32.994 90.8713 -172.287 -31.0149 88.0826 -0.719155 -2.84639 0.680591 82.3525 14.0471 -2.09358 23.7013 -4.9411 5.96821 -177.416 25.2608 103.441 -17.9146 -13.9685 -0.525605 70.1136 -5.41176 -2.65623 26.619 -0.0426509 3.83849 0.560614 8.27967 -90.8265 10.3173 0.738904 -1.7055 -1.35463 0.663142 -1.73636 -23.8849 1.21726 -1.40467 -3.87226 1.21728 -1.40467 91.211 -31.2036 -103.94 40.7693 -11.3408 7.70211 -12.4969 -16.1561 -20.369 -9.16634 -0.0975601 -4.15264 -88.0962 -46.4694 80.9097 -15.5696 5.28025 -39.9439 17.1542 4.56512 -28.658 0.105044 -0.0797971 -3.87381 6.17283 0.645066 -10.79 -6.77204 2.66562 1.84213 
-313.351 89.6024 289.362 98.4518 46.1422 89.2612 -165.464 -26.7258 98.7392 -13.8323 16.4572 0.18572 77.702 12.3414 1.45525 33.1999 -1.77739 9.4607 178.874 26.8512 99.7081 -25.7506 -8.25588 1.29614 63.5746 0.0761496 -4.01479 22.6955 1.5419 4.03899 -0.869673 8.18208 -91.0988 10.4877 -2.23642 -1.98217 -1.18249 -2.32147 -1.88183 -23.7153 -1.53744 -2.56246 -3.70265 -1.53746 -2.56246 91.6606 -30.4727 -103.299 42.0451 -9.70329 8.99777 -9.55533 -16.8342 -12.6704 -8.83943 -0.189285 -2.93597 -88.4334 -47.8889 80.6661 -16.6106 8.87254 -38.5257 17.0251 5.66413 -26.8351 -0.278634 -0.0914401 -4.4003 6.74291 0.947931 -7.73002 -7.59911 2.44353 0.744665 
-306.624 90.3461 283.012 99.3095 48.3052 89.2255 -166.242 -19.8332 100.502 -31.8857 21.0295 2.43111 64.5895 2.98444 2.27021 28.9618 -1.01646 3.8283 177.357 24.8836 100.043 -33.2155 -5.89779 2.27634 63.1878 0.614272 -0.963656 19.1933 3.43117 2.83497 -0.973952 7.99472 -91.2665 10.8546 -2.52422 -2.28366 -0.815765 -2.62227 -2.17038 -23.3453 -1.72154 -2.93641 -3.3326 -1.72153 -2.9364 91.4823 -30.0043 -103.811 43.6254 -8.55354 10.3081 -8.6016 -14.0383 -9.95934 -7.52298 0.0357465 -6.09417 -88.5769 -47.9679 80.4574 -16.7383 18.0657 -34.2367 14.4195 6.58242 -21.3428 -3.14959 -0.0819171 -5.36336 5.60568 0.663795 -6.10204 -8.53198 1.75247 1.10794 
-300.77 91.3726 277.515 102.277 48.6465 87.8526 -167.997 -9.3422 101.752 -51.5979 23.6653 3.84629 52.7538 -5.25067 -0.155294 14.5311 -3.62823 -4.454 176.802 18.6518 101.498 -35.9008 -6.84202 2.66013 67.4467 -3.03615 -3.31376 20.8502 2.85596 2.38477 -0.727842 8.19761 -91.2422 10.4532 -2.01945 -2.29 -1.21805 -2.11827 -2.19893 -23.7427 -1.23815 -2.79075 -3.73008 -1.23817 -2.79075 91.131 -31.0411 -104.15 43.7147 -10.1137 8.14838 -9.67239 -13.9486 -13.5183 -7.09595 -0.0266367 -5.09172 -88.3015 -46.5941 80.6147 -18.285 24.1774 -31.7258 10.4868 7.27365 -11.4005 -1.37982 -0.0678438 -3.49274 6.19009 -0.365489 -6.99552 -8.70528 0.910286 1.79271 
-296.211 92.6584 273.063 101.746 50.8821 87.6087 -171.921 5.43765 99.7242 -65.3377 17.1367 4.28927 60.4492 -0.766334 0.453365 7.75329 -8.1769 -1.73275 176.497 13.3244 101.007 -33.3592 -5.00025 2.7949 70.1259 -5.08904 -2.98407 23.2399 1.86204 2.19791 -0.584267 8.20091 -91.1854 10.4506 -1.70736 -2.20468 -1.22095 -1.80274 -2.12743 -23.7447 -0.96612 -2.61565 -3.73204 -0.966096 -2.61564 91.0067 -30.5939 -104.55 41.7597 -12.1049 3.52308 -12.7024 -16.0736 -20.4091 -8.27289 -0.0535467 -4.70083 -88.6018 -48.4134 80.5124 -21.237 23.0031 -25.9779 8.4019 3.98405 -4.56065 -0.197714 -0.101924 -4.97071 5.13969 -1.67188 -6.57881 -7.52978 -0.487289 1.45672 
-291.855 93.9828 268.718 100.743 48.647 85.7546 -172.807 15.8578 94.3093 -64.2386 9.69057 2.36736 68.8973 4.68827 2.18233 9.54278 -9.97558 2.33307 177.02 7.68067 99.2326 -30.2615 -6.96233 0.973814 72.108 -6.16271 -2.72249 24.5778 1.41761 1.71076 -0.00280376 8.20061 -90.7564 10.4667 -0.352487 -1.47076 -1.20507 -0.416853 -1.45383 -23.7334 0.105792 -1.50869 -3.72076 0.105807 -1.50869 90.6994 -30.5612 -105.168 38.0631 -13.7548 -1.87082 -15.2577 -15.2099 -26.5876 -8.09186 -0.079062 -4.52528 -88.0618 -48.7686 81.404 -25.1277 19.6994 -15.9851 8.96381 0.240983 -6.94445 -3.94236 -0.0554723 -7.22425 2.86008 -2.80702 -7.40494 -6.11246 -1.57231 0.821134 
-287.167 94.7738 263.747 99.7746 46.8168 85.1006 -173.817 22.8933 91.3074 -51.6817 2.97941 0.808245 70.3875 5.56063 0.661796 12.0992 -9.91838 4.26163 176.769 1.05746 97.2865 -26.1263 -6.58075 -0.193825 75.2846 -7.09225 1.28523 23.8341 1.68329 1.92619 0.515554 8.22144 -90.4968 10.4346 0.799249 -1.05916 -1.23658 0.751849 -1.09331 -23.7718 1.08059 -0.769999 -3.75915 1.08061 -0.769995 90.7862 -28.9733 -105.569 34.3816 -12.5182 -7.65811 -17.692 -15.2037 -31.239 -12.5993 -0.37677 -1.69585 -87.6585 -49.2945 82.1105 -25.2548 15.855 -6.79775 9.34871 -3.76961 -10.3456 -3.58345 -0.0826832 -5.27089 1.43408 -3.46313 -6.20885 -5.62716 -2.44358 -1.84234 
